<svg width="19" height="19" viewBox="0 0 19 19" fill="none" xmlns="http://www.w3.org/2000/svg">
<path d="M17.3901 2.90774L18.0398 2.26717C18.2122 2.09486 18.309 1.86115 18.309 1.61745C18.309 1.37376 18.2122 1.14005 18.0398 0.967732C17.8675 0.795415 17.6338 0.698608 17.3901 0.698608C17.1464 0.698608 16.9127 0.795415 16.7404 0.967732L15.4593 2.25802L12.8695 4.84776L7.09524 10.6129C6.14907 9.98864 5.00485 9.73784 3.88431 9.90908C2.76377 10.0803 1.74668 10.6614 1.03013 11.5397C0.313576 12.4181 -0.0514261 13.5312 0.0058485 14.6633C0.0631231 15.7954 0.538597 16.8659 1.34014 17.6674C2.14168 18.469 3.21222 18.9445 4.34432 19.0017C5.47642 19.059 6.58948 18.694 7.46783 17.9774C8.34617 17.2609 8.92726 16.2438 9.0985 15.1233C9.26974 14.0027 9.01894 12.8585 8.39469 11.9123L13.5101 6.78777L15.4501 8.73693C15.5354 8.82166 15.6366 8.88874 15.7479 8.93436C15.8591 8.97999 15.9783 9.00325 16.0985 9.00282C16.2187 9.0024 16.3377 8.97829 16.4486 8.93189C16.5596 8.88548 16.6603 8.81768 16.745 8.73236C16.8297 8.64704 16.8968 8.54586 16.9424 8.43461C16.988 8.32336 17.0113 8.20422 17.0109 8.08398C17.0104 7.96374 16.9863 7.84476 16.9399 7.73384C16.8935 7.62291 16.8257 7.52221 16.7404 7.43749L14.8004 5.49748L16.0998 4.20719L16.7404 4.84776C16.8251 4.93308 16.9258 5.00088 17.0367 5.04729C17.1477 5.09369 17.2666 5.1178 17.3869 5.11822C17.5071 5.11865 17.6263 5.09538 17.7375 5.04976C17.8488 5.00414 17.9499 4.93706 18.0353 4.85233C18.1206 4.76761 18.1884 4.66691 18.2348 4.55599C18.2812 4.44507 18.3053 4.32609 18.3057 4.20585C18.3062 4.08561 18.2829 3.96646 18.2373 3.85521C18.1917 3.74396 18.1246 3.64279 18.0398 3.55747L17.3901 2.90774ZM4.57872 17.1742C4.03575 17.1742 3.50497 17.0132 3.05351 16.7115C2.60205 16.4098 2.25018 15.9811 2.04239 15.4794C1.83461 14.9778 1.78024 14.4258 1.88617 13.8933C1.9921 13.3607 2.25356 12.8716 2.6375 12.4876C3.02143 12.1037 3.5106 11.8422 4.04314 11.7363C4.57567 11.6304 5.12766 11.6847 5.6293 11.8925C6.13094 12.1003 6.5597 12.4522 6.86135 12.9037C7.16301 13.3551 7.32402 13.8859 7.32402 14.4289C7.32402 15.157 7.03478 15.8552 6.51994 16.3701C6.0051 16.8849 5.30682 17.1742 4.57872 17.1742Z" fill="#A4A4A4"/>
</svg>
